<?xml version="1.0" encoding="UTF-8"?>
<svg id="Layer_2" data-name="Layer 2" xmlns="http://www.w3.org/2000/svg" viewBox="0 0 268.02 57.19">
  <defs>
    <style>
      .cls-1 {
        fill: #fff;
        stroke-width: 0px;
      }
    </style>
  </defs>
  <g id="Layer_1-2" data-name="Layer 1">
    <g>
      <g>
        <polygon class="cls-1" points="37.47 30.54 26.71 57.19 23.02 57.19 0 0 10.17 0 28.19 44.54 33.83 30.54 37.47 30.54"/>
        <polygon class="cls-1" points="72.85 57.19 62.68 57.19 44.66 12.66 39.02 26.66 35.38 26.66 46.14 0 49.83 0 72.85 57.19"/>
      </g>
      <rect class="cls-1" x="88.48" width=".8" height="57.19"/>
      <g>
        <g>
          <path class="cls-1" d="M126.47,46.55l2.98-7.21h1.28l2.95,7.21h-1.17l-.83-2.11h-3.22l-.84,2.11h-1.12ZM128.78,43.54h2.52l-1.26-3.17-1.27,3.17Z"/>
          <path class="cls-1" d="M137.29,46.55v-7.21h3.27c.48,0,.9.09,1.26.27.36.18.64.43.84.75.2.32.3.69.3,1.12,0,.47-.13.88-.4,1.23-.27.34-.63.59-1.08.74l1.61,3.11h-1.19l-1.49-2.96h-2.03v2.96h-1.08ZM138.37,42.69h2.1c.43,0,.77-.11,1.02-.32.26-.22.39-.51.39-.88s-.13-.64-.39-.87c-.26-.22-.6-.33-1.02-.33h-2.1v2.4Z"/>
          <path class="cls-1" d="M150.44,46.66c-.54,0-1.03-.09-1.49-.28-.46-.19-.86-.45-1.21-.79-.35-.34-.61-.73-.8-1.18-.19-.45-.28-.94-.28-1.46s.09-1.01.28-1.46c.19-.45.46-.84.8-1.18.35-.34.75-.6,1.21-.79.46-.19.95-.28,1.48-.28.38,0,.75.05,1.11.15.36.1.69.24,1,.43s.57.41.8.67l-.72.74c-.27-.32-.59-.57-.98-.74-.39-.17-.79-.25-1.21-.25-.38,0-.74.07-1.07.21-.33.14-.61.33-.85.57-.24.24-.43.53-.56.86-.13.33-.2.69-.2,1.08s.07.74.2,1.07.32.62.57.87c.25.25.54.44.87.58.33.14.69.21,1.07.21.42,0,.82-.08,1.19-.25.37-.17.69-.41.95-.72l.71.72c-.24.25-.51.48-.82.66-.31.19-.63.33-.99.43-.35.1-.71.15-1.08.15Z"/>
          <path class="cls-1" d="M157.27,46.55v-7.21h1.08v3.09h3.83v-3.09h1.08v7.21h-1.08v-3.14h-3.83v3.14h-1.08Z"/>
          <path class="cls-1" d="M167.62,46.55v-7.21h1.08v7.21h-1.08Z"/>
          <path class="cls-1" d="M175.03,46.55v-6.25h-2.53v-.96h6.15v.96h-2.53v6.25h-1.08Z"/>
          <path class="cls-1" d="M182.44,46.55v-7.21h5.32v.95h-4.23v2.16h2.78v.92h-2.78v2.23h4.27v.95h-5.36Z"/>
          <path class="cls-1" d="M194.81,46.66c-.54,0-1.03-.09-1.49-.28-.46-.19-.86-.45-1.2-.79-.35-.34-.61-.73-.8-1.18s-.28-.94-.28-1.46.09-1.01.28-1.46.46-.84.8-1.18.75-.6,1.21-.79.95-.28,1.48-.28c.38,0,.75.05,1.11.15.36.1.69.24,1,.43.31.19.57.41.8.67l-.72.74c-.27-.32-.59-.57-.98-.74-.38-.17-.79-.25-1.2-.25-.38,0-.74.07-1.07.21-.33.14-.61.33-.85.57-.24.24-.43.53-.56.86-.13.33-.2.69-.2,1.08s.07.74.2,1.07c.13.33.32.62.57.87s.54.44.87.58c.33.14.69.21,1.07.21.42,0,.81-.08,1.19-.25.37-.17.69-.41.95-.72l.71.72c-.24.25-.51.48-.82.66-.31.19-.63.33-.99.43-.35.1-.71.15-1.08.15Z"/>
          <path class="cls-1" d="M203.72,46.55v-6.25h-2.53v-.96h6.15v.96h-2.53v6.25h-1.08Z"/>
          <path class="cls-1" d="M214.06,46.66c-.62,0-1.17-.13-1.63-.39-.46-.26-.81-.63-1.06-1.11-.25-.48-.37-1.04-.37-1.69v-4.13h1.08v4.13c0,.45.08.83.24,1.16.16.33.39.58.69.76.3.18.65.27,1.05.27s.77-.09,1.06-.27c.3-.18.52-.43.69-.76.16-.33.24-.72.24-1.16v-4.13h1.08v4.13c0,.65-.13,1.22-.38,1.69s-.61.85-1.07,1.11-1,.39-1.63.39Z"/>
          <path class="cls-1" d="M221.35,46.55v-7.21h3.27c.48,0,.9.09,1.26.27.36.18.64.43.84.75.2.32.3.69.3,1.12,0,.47-.13.88-.4,1.23-.27.34-.63.59-1.08.74l1.61,3.11h-1.19l-1.49-2.96h-2.03v2.96h-1.08ZM222.44,42.69h2.1c.43,0,.77-.11,1.02-.32s.39-.51.39-.88-.13-.64-.39-.87c-.26-.22-.6-.33-1.02-.33h-2.1v2.4Z"/>
          <path class="cls-1" d="M230.41,46.55l2.98-7.21h1.28l2.95,7.21h-1.17l-.83-2.11h-3.22l-.84,2.11h-1.12ZM232.73,43.54h2.52l-1.26-3.17-1.27,3.17Z"/>
          <path class="cls-1" d="M241.23,46.55v-7.21h1.08v6.25h4.15v.96h-5.23Z"/>
        </g>
        <g>
          <polygon class="cls-1" points="134.32 10.53 131.91 10.53 131.91 28.89 134.32 28.89 135.53 28.89 144.86 28.89 144.86 25.71 135.53 25.71 135.53 20.71 143.06 20.71 143.06 17.58 135.53 17.58 135.53 13.7 144.86 13.7 144.86 10.53 135.53 10.53 134.32 10.53"/>
          <polygon class="cls-1" points="167.28 21.24 154.21 10.53 154.21 28.89 157.83 28.89 157.83 18.19 170.9 28.89 170.9 10.53 167.28 10.53 167.28 21.24"/>
          <polygon class="cls-1" points="236.78 21.24 223.72 10.53 223.72 28.89 227.34 28.89 227.34 18.19 240.41 28.89 240.41 10.53 236.78 10.53 236.78 21.24"/>
          <polygon class="cls-1" points="178.7 13.91 184.27 13.91 184.27 28.89 188.02 28.89 188.02 13.91 193.62 13.91 193.62 10.53 178.7 10.53 178.7 13.91"/>
          <polygon class="cls-1" points="114.91 21.22 109.08 10.53 104.91 10.53 114.91 28.89 124.91 10.53 120.74 10.53 114.91 21.22"/>
          <polygon class="cls-1" points="196.11 28.89 200.28 28.89 206.11 18.19 211.94 28.89 216.11 28.89 206.11 10.53 196.11 28.89"/>
          <polygon class="cls-1" points="258.03 10.53 248.02 28.89 252.19 28.89 258.02 18.19 263.85 28.89 268.02 28.89 258.03 10.53"/>
        </g>
      </g>
    </g>
  </g>
</svg>