<svg xmlns="http://www.w3.org/2000/svg" viewBox="65.97 171.38 268.05 57.22"><path d="m103.457 201.94-10.759 26.656h-3.69L65.99 171.404h10.173l18.018 44.537 5.638-14.001zM138.838 228.596h-10.173l-18.018-44.536-5.638 14h-3.638l10.759-26.656h3.69zM154.47 228.596h.801v-57.192h-.801zM194.774 214.946h2.523l-1.257-3.173zm-2.318 3.008 2.976-7.21h1.278l2.946 7.21h-1.175l-.833-2.112h-3.225l-.844 2.112z" fill="#030404"/><clipPath id="a"><path transform="matrix(1 0 0 -1 0 400)" d="M0 400h400V0H0z"/></clipPath><g clip-path="url(#a)" fill="#030404"><path d="M204.364 214.091h2.101c.426 0 .767-.108 1.025-.325.257-.216.386-.509.386-.88 0-.357-.129-.645-.386-.866-.258-.219-.599-.329-1.025-.329h-2.101zm-1.082 3.863v-7.21h3.266c.481 0 .901.088 1.262.267.36.18.641.428.844.747.202.32.304.692.304 1.118 0 .473-.134.882-.402 1.225a2.22 2.22 0 0 1-1.081.742l1.607 3.111h-1.195l-1.494-2.957h-2.029v2.957zM216.425 218.067a3.767 3.767 0 0 1-2.694-1.076 3.581 3.581 0 0 1-.802-1.185 3.7 3.7 0 0 1-.284-1.457 3.7 3.7 0 0 1 .284-1.457c.188-.45.456-.845.802-1.185.348-.34.75-.604 1.21-.793.46-.189.955-.284 1.484-.284a4.124 4.124 0 0 1 2.107.577c.305.186.572.409.798.67l-.721.741a2.629 2.629 0 0 0-.978-.736 2.988 2.988 0 0 0-1.206-.252c-.384 0-.74.068-1.065.205-.327.138-.61.328-.851.572-.24.244-.427.531-.561.86-.134.33-.201.69-.201 1.082 0 .385.067.742.2 1.071.135.33.325.618.572.865.248.247.537.44.867.577.328.138.686.206 1.07.206.419 0 .816-.083 1.19-.252.374-.168.69-.407.953-.716l.71.721a4.042 4.042 0 0 1-.82.664 3.93 3.93 0 0 1-2.065.582M223.255 217.954v-7.21h1.081v3.09h3.832v-3.09h1.081v7.21h-1.08v-3.142h-3.833v3.142zM233.607 210.744h1.081v7.21h-1.081zM241.023 217.954v-6.252h-2.534v-.958h6.15v.958h-2.534v6.252zM248.429 217.954v-7.21h5.316v.947h-4.234v2.163h2.78v.917h-2.78v2.235h4.274v.948zM260.8 218.067a3.763 3.763 0 0 1-2.694-1.076 3.6 3.6 0 0 1-.804-1.185 3.718 3.718 0 0 1-.283-1.457c0-.522.094-1.008.283-1.457a3.6 3.6 0 0 1 .803-1.185c.347-.34.75-.604 1.211-.793.46-.189.954-.284 1.483-.284a4.13 4.13 0 0 1 2.107.577c.305.186.571.409.798.67l-.72.741a2.64 2.64 0 0 0-.98-.736 2.98 2.98 0 0 0-1.205-.252c-.384 0-.74.068-1.066.205a2.599 2.599 0 0 0-.85.572c-.24.244-.428.531-.56.86-.135.33-.202.69-.202 1.082 0 .385.067.742.201 1.071.133.33.324.618.571.865.247.247.536.44.865.577.33.138.688.206 1.072.206.418 0 .815-.083 1.19-.252.374-.168.691-.407.953-.716l.711.721a4.07 4.07 0 0 1-.82.664 3.93 3.93 0 0 1-2.065.582M269.71 217.954v-6.252h-2.535v-.958h6.15v.958h-2.535v6.252zM280.051 218.067c-.625 0-1.168-.13-1.627-.391a2.635 2.635 0 0 1-1.06-1.107c-.249-.478-.372-1.042-.372-1.695v-4.13h1.081v4.13c0 .447.081.835.242 1.164.161.33.391.584.69.763.3.178.647.267 1.046.267.412 0 .766-.089 1.061-.267.295-.179.524-.433.685-.763.161-.329.242-.717.242-1.164v-4.13h1.081v4.13c0 .653-.125 1.217-.375 1.695a2.673 2.673 0 0 1-1.067 1.107c-.46.261-1.002.391-1.627.391M288.425 214.091h2.1c.427 0 .769-.108 1.026-.325.257-.216.387-.509.387-.88 0-.357-.13-.645-.387-.866-.257-.219-.6-.329-1.025-.329h-2.101zm-1.082 3.863v-7.21h3.266c.48 0 .9.088 1.262.267.36.18.64.428.844.747.203.32.304.692.304 1.118 0 .473-.133.882-.402 1.225a2.22 2.22 0 0 1-1.081.742l1.607 3.111h-1.195l-1.493-2.957h-2.03v2.957zM298.715 214.946h2.524l-1.258-3.173zm-2.318 3.008 2.977-7.21h1.277l2.946 7.21h-1.174l-.834-2.112h-3.225l-.844 2.112zM307.223 217.954v-7.21h1.082v6.252h4.151v.958zM200.313 181.933H197.9v18.359h12.95v-3.173h-9.33v-5.01h7.527v-3.121h-7.527v-3.881h9.33v-3.174h-9.33zM233.265 192.642l-13.062-10.709v18.36h3.62v-10.696l13.063 10.696v-18.36h-3.62zM302.775 192.642l-13.062-10.709v18.36h3.62v-10.696l13.063 10.696v-18.36h-3.621zM244.69 185.316h5.57v14.976h3.75v-14.976h5.597v-3.383H244.69zM180.902 192.629l-5.829-10.696h-4.17l10 18.36 10-18.36h-4.172zM262.098 200.292h4.17l5.83-10.696 5.829 10.696h4.17l-9.994-18.359zM324.015 181.933l-10.005 18.359h4.171l5.83-10.695 5.828 10.695h4.171z"/></g></svg>